<svg width="207" height="33" viewBox="0 0 207 33" fill="none" xmlns="http://www.w3.org/2000/svg">
<path d="M7.298 21.525C7.298 22.755 7.47567 23.8073 7.831 24.682C8.18633 25.5293 8.692 26.24 9.348 26.814C10.004 27.3607 10.783 27.7707 11.685 28.044C12.587 28.29 13.5847 28.413 14.678 28.413C16.0173 28.413 17.1243 28.29 17.999 28.044C18.901 27.7707 19.6117 27.429 20.131 27.019C20.6777 26.609 21.074 26.158 21.32 25.666C21.5933 25.1467 21.7847 24.641 21.894 24.149H25.707C25.6523 25.297 25.3107 26.363 24.682 27.347C24.0533 28.3037 23.206 29.1373 22.14 29.848C21.074 30.5313 19.803 31.0643 18.327 31.447C16.851 31.8297 15.2383 32.021 13.489 32.021C9.17033 32.021 5.83567 31.0507 3.485 29.11C1.16167 27.142 0 24.3677 0 20.787C0 19.0923 0.314333 17.548 0.943 16.154C1.57167 14.76 2.46 13.571 3.608 12.587C4.756 11.603 6.13633 10.8513 7.749 10.332C9.389 9.78533 11.2203 9.512 13.243 9.512C15.457 9.512 17.3567 9.799 18.942 10.373C20.5547 10.947 21.8803 11.767 22.919 12.833C23.9577 13.8717 24.723 15.129 25.215 16.605C25.7343 18.081 25.994 19.721 25.994 21.525H7.298ZM18.573 18.327C18.573 17.671 18.4773 17.015 18.286 16.359C18.122 15.703 17.835 15.1153 17.425 14.596C17.015 14.0493 16.4547 13.612 15.744 13.284C15.0607 12.956 14.1997 12.792 13.161 12.792C12.2043 12.792 11.3707 12.956 10.66 13.284C9.94933 13.612 9.348 14.0357 8.856 14.555C8.39133 15.0743 8.036 15.6757 7.79 16.359C7.544 17.015 7.40733 17.671 7.38 18.327H18.573Z" fill="#828282"/>
<path d="M47.772 17.179C47.28 15.621 46.3507 14.514 44.984 13.858C43.6447 13.202 41.9774 12.874 39.982 12.874C39.49 12.874 38.9707 12.915 38.424 12.997C37.8774 13.0517 37.3717 13.1747 36.907 13.366C36.4697 13.53 36.1007 13.776 35.8 14.104C35.5267 14.4047 35.39 14.7873 35.39 15.252C35.39 15.7987 35.6087 16.2087 36.046 16.482C36.5107 16.7553 37.071 16.9603 37.727 17.097L47.034 19.024C48.756 19.3793 50.109 20.0763 51.093 21.115C52.077 22.1537 52.569 23.37 52.569 24.764C52.569 26.0213 52.2547 27.1147 51.626 28.044C50.9974 28.946 50.1774 29.6977 49.166 30.299C48.182 30.873 47.0477 31.2967 45.763 31.57C44.5057 31.8707 43.2347 32.021 41.95 32.021C40.2827 32.021 38.7384 31.8433 37.317 31.488C35.923 31.16 34.57 30.5997 33.258 29.807L32.561 31.529H29.486V23.616H32.725C32.9164 24.436 33.258 25.1603 33.75 25.789C34.2694 26.3903 34.898 26.9097 35.636 27.347C36.374 27.757 37.2077 28.0713 38.137 28.29C39.0937 28.5087 40.1187 28.618 41.212 28.618C41.7314 28.618 42.2917 28.5907 42.893 28.536C43.5217 28.454 44.0957 28.3173 44.615 28.126C45.1344 27.9347 45.558 27.675 45.886 27.347C46.2414 26.9917 46.419 26.5543 46.419 26.035C46.419 25.4063 46.1457 24.9553 45.599 24.682C45.0797 24.3813 44.41 24.149 43.59 23.985L35.39 22.304C33.504 21.9213 32.0007 21.279 30.88 20.377C29.7867 19.4477 29.24 18.163 29.24 16.523C29.24 15.2657 29.5407 14.1997 30.142 13.325C30.7434 12.4503 31.5224 11.7397 32.479 11.193C33.463 10.619 34.5564 10.209 35.759 9.963C36.989 9.68967 38.2327 9.553 39.49 9.553C40.9387 9.553 42.278 9.68967 43.508 9.963C44.7654 10.2363 45.9954 10.6873 47.198 11.316L48.223 9.553H51.011V17.179H47.772Z" fill="#828282"/>
<path d="M71.6071 26.65C71.6071 28.2353 71.0605 29.52 69.9671 30.504C68.9011 31.488 67.4935 31.98 65.7441 31.98C63.4208 31.98 61.6578 31.57 60.4551 30.75C59.2798 29.93 58.6921 28.659 58.6921 26.937V13.284H54.2641V10.414C56.8881 10.3867 58.7195 9.676 59.7581 8.282C60.8241 6.86067 61.3571 4.76967 61.3571 2.009H65.2931V10.25H71.0331V13.284H65.2931V26.937C65.2931 27.2923 65.4161 27.5793 65.6621 27.798C65.9081 28.0167 66.2771 28.126 66.7691 28.126C67.3431 28.126 67.7531 28.003 67.9991 27.757C68.2451 27.511 68.3681 27.2377 68.3681 26.937V22.714H71.6071V26.65Z" fill="#828282"/>
<path d="M74.752 31.365V28.29H77.54C77.8133 28.29 78.1003 28.1943 78.401 28.003C78.7016 27.7843 78.852 27.4427 78.852 26.978V13.284H74.875V10.25H78.893C78.9203 9.02 78.9476 7.98133 78.975 7.134C79.0296 6.28667 79.18 5.50767 79.426 4.797C79.6446 3.895 80.0273 3.14333 80.574 2.542C81.1206 1.91334 81.7903 1.42133 82.583 1.066C83.403 0.683334 84.305 0.410001 85.289 0.245999C86.273 0.0819998 87.298 0 88.364 0C89.2113 0 90.0723 0.0683329 90.947 0.204999C91.849 0.341666 92.669 0.574 93.407 0.902C94.145 1.23 94.7463 1.681 95.211 2.255C95.6756 2.80167 95.908 3.49867 95.908 4.346C95.908 5.43933 95.539 6.273 94.801 6.847C94.0903 7.39367 93.243 7.667 92.259 7.667C91.357 7.667 90.5643 7.421 89.881 6.929C89.225 6.40967 88.897 5.71267 88.897 4.838C88.897 4.182 89.1703 3.53967 89.717 2.911C89.6076 2.829 89.4573 2.77433 89.266 2.747C89.0746 2.71967 88.856 2.706 88.61 2.706C87.4073 2.706 86.5463 3.00667 86.027 3.608C85.535 4.20933 85.289 4.961 85.289 5.863C85.289 6.57367 85.3163 7.32533 85.371 8.118C85.453 8.88333 85.5076 9.594 85.535 10.25H92.054V13.284H85.535V27.019C85.535 27.8663 86.0406 28.29 87.052 28.29H91.152V31.365H74.752Z" fill="#828282"/>
<path d="M94.8554 31.365V28.29H97.5614C97.8074 28.29 98.0808 28.208 98.3814 28.044C98.6821 27.8527 98.8324 27.4973 98.8324 26.978V14.596C98.8324 13.9673 98.6821 13.5983 98.3814 13.489C98.0808 13.3523 97.7528 13.284 97.3974 13.284H94.6504V10.291L105.515 9.676V13.776C106.363 12.464 107.401 11.439 108.631 10.701C109.861 9.93567 111.378 9.553 113.182 9.553C114.822 9.553 116.162 9.922 117.2 10.66C118.266 11.398 118.799 12.505 118.799 13.981C118.799 15.1837 118.417 16.113 117.651 16.769C116.913 17.425 115.998 17.753 114.904 17.753C114.03 17.753 113.251 17.5207 112.567 17.056C111.884 16.564 111.542 15.8807 111.542 15.006C111.542 14.6233 111.638 14.2543 111.829 13.899C112.021 13.5163 112.267 13.1473 112.567 12.792C112.157 12.7647 111.693 12.8193 111.173 12.956C110.49 13.0653 109.807 13.3387 109.123 13.776C108.44 14.186 107.825 14.6917 107.278 15.293C106.759 15.867 106.335 16.523 106.007 17.261C105.679 17.9717 105.515 18.696 105.515 19.434V27.019C105.515 27.8663 105.953 28.29 106.827 28.29H111.542V31.365H94.8554Z" fill="#828282"/>
<path d="M127.896 21.525C127.896 22.755 128.073 23.8073 128.429 24.682C128.784 25.5293 129.29 26.24 129.946 26.814C130.602 27.3607 131.381 27.7707 132.283 28.044C133.185 28.29 134.182 28.413 135.276 28.413C136.615 28.413 137.722 28.29 138.597 28.044C139.499 27.7707 140.209 27.429 140.729 27.019C141.275 26.609 141.672 26.158 141.918 25.666C142.191 25.1467 142.382 24.641 142.492 24.149H146.305C146.25 25.297 145.908 26.363 145.28 27.347C144.651 28.3037 143.804 29.1373 142.738 29.848C141.672 30.5313 140.401 31.0643 138.925 31.447C137.449 31.8297 135.836 32.021 134.087 32.021C129.768 32.021 126.433 31.0507 124.083 29.11C121.759 27.142 120.598 24.3677 120.598 20.787C120.598 19.0923 120.912 17.548 121.541 16.154C122.169 14.76 123.058 13.571 124.206 12.587C125.354 11.603 126.734 10.8513 128.347 10.332C129.987 9.78533 131.818 9.512 133.841 9.512C136.055 9.512 137.954 9.799 139.54 10.373C141.152 10.947 142.478 11.767 143.517 12.833C144.555 13.8717 145.321 15.129 145.813 16.605C146.332 18.081 146.592 19.721 146.592 21.525H127.896ZM139.171 18.327C139.171 17.671 139.075 17.015 138.884 16.359C138.72 15.703 138.433 15.1153 138.023 14.596C137.613 14.0493 137.052 13.612 136.342 13.284C135.658 12.956 134.797 12.792 133.759 12.792C132.802 12.792 131.968 12.956 131.258 13.284C130.547 13.612 129.946 14.0357 129.454 14.555C128.989 15.0743 128.634 15.6757 128.388 16.359C128.142 17.015 128.005 17.671 127.978 18.327H139.171Z" fill="#828282"/>
<path d="M168.37 17.179C167.878 15.621 166.948 14.514 165.582 13.858C164.242 13.202 162.575 12.874 160.58 12.874C160.088 12.874 159.568 12.915 159.022 12.997C158.475 13.0517 157.969 13.1747 157.505 13.366C157.067 13.53 156.698 13.776 156.398 14.104C156.124 14.4047 155.988 14.7873 155.988 15.252C155.988 15.7987 156.206 16.2087 156.644 16.482C157.108 16.7553 157.669 16.9603 158.325 17.097L167.632 19.024C169.354 19.3793 170.707 20.0763 171.691 21.115C172.675 22.1537 173.167 23.37 173.167 24.764C173.167 26.0213 172.852 27.1147 172.224 28.044C171.595 28.946 170.775 29.6977 169.764 30.299C168.78 30.873 167.645 31.2967 166.361 31.57C165.103 31.8707 163.832 32.021 162.548 32.021C160.88 32.021 159.336 31.8433 157.915 31.488C156.521 31.16 155.168 30.5997 153.856 29.807L153.159 31.529H150.084V23.616H153.323C153.514 24.436 153.856 25.1603 154.348 25.789C154.867 26.3903 155.496 26.9097 156.234 27.347C156.972 27.757 157.805 28.0713 158.735 28.29C159.691 28.5087 160.716 28.618 161.81 28.618C162.329 28.618 162.889 28.5907 163.491 28.536C164.119 28.454 164.693 28.3173 165.213 28.126C165.732 27.9347 166.156 27.675 166.484 27.347C166.839 26.9917 167.017 26.5543 167.017 26.035C167.017 25.4063 166.743 24.9553 166.197 24.682C165.677 24.3813 165.008 24.149 164.188 23.985L155.988 22.304C154.102 21.9213 152.598 21.279 151.478 20.377C150.384 19.4477 149.838 18.163 149.838 16.523C149.838 15.2657 150.138 14.1997 150.74 13.325C151.341 12.4503 152.12 11.7397 153.077 11.193C154.061 10.619 155.154 10.209 156.357 9.963C157.587 9.68967 158.83 9.553 160.088 9.553C161.536 9.553 162.876 9.68967 164.106 9.963C165.363 10.2363 166.593 10.6873 167.796 11.316L168.821 9.553H171.609V17.179H168.37Z" fill="#828282"/>
<path d="M192.697 31.365V28.29H194.911C195.239 28.29 195.526 28.208 195.772 28.044C196.018 27.8527 196.141 27.4427 196.141 26.814V16.974C196.141 16.3453 196.018 15.8123 195.772 15.375C195.553 14.9103 195.252 14.5413 194.87 14.268C194.487 13.9947 194.036 13.8033 193.517 13.694C193.025 13.5573 192.505 13.489 191.959 13.489C191.166 13.489 190.401 13.5983 189.663 13.817C188.952 14.0083 188.31 14.2953 187.736 14.678C187.189 15.0333 186.738 15.4707 186.383 15.99C186.055 16.482 185.891 17.0423 185.891 17.671V26.732C185.891 27.1967 185.986 27.5793 186.178 27.88C186.396 28.1533 186.738 28.29 187.203 28.29H189.745V31.365H175.313V28.29H177.937C178.046 28.29 178.169 28.2763 178.306 28.249C178.47 28.2217 178.606 28.167 178.716 28.085C178.852 27.9757 178.962 27.8253 179.044 27.634C179.153 27.4153 179.208 27.1283 179.208 26.773V4.879C179.208 4.469 179.085 4.19567 178.839 4.059C178.62 3.92233 178.374 3.854 178.101 3.854H174.985V0.861001L185.891 0.123001V13.038C186.929 11.9173 188.159 11.0427 189.581 10.414C191.029 9.758 192.628 9.43 194.378 9.43C195.416 9.43 196.441 9.553 197.453 9.799C198.464 10.045 199.352 10.4277 200.118 10.947C200.91 11.439 201.539 12.0813 202.004 12.874C202.496 13.6393 202.742 14.5687 202.742 15.662V26.732C202.742 27.142 202.837 27.511 203.029 27.839C203.247 28.1397 203.548 28.29 203.931 28.29H206.719V31.365H192.697Z" fill="#828282"/>
</svg>
