<svg width="169" height="46" viewBox="0 0 169 46" fill="none" xmlns="http://www.w3.org/2000/svg">
<path d="M0 0H169V45.1872H0V0Z" fill="#828282"/>
<path d="M25.7086 13.1785V15.9344H17.5018V21.4464H24.4283V24.2152H17.5018V31.8005H14.0322V13.1785H25.7086Z" fill="white"/>
<path d="M42.8078 31.8005H40.1448C39.8461 31.8005 39.5985 31.7276 39.4022 31.5816C39.2145 31.4271 39.0779 31.2382 38.9925 31.015L37.6098 27.2159H29.9408L28.5581 31.015C28.4898 31.2124 28.3532 31.3927 28.1484 31.5559C27.9521 31.719 27.7088 31.8005 27.4186 31.8005H24.7428L32.0149 13.1785H35.5357L42.8078 31.8005ZM30.8242 24.769H36.7264L34.4731 18.5745C34.3706 18.2998 34.2554 17.9778 34.1274 17.6086C34.0079 17.2308 33.8884 16.823 33.7689 16.3852C33.6494 16.823 33.5299 17.2308 33.4104 17.6086C33.2995 17.9864 33.1885 18.3169 33.0775 18.6002L30.8242 24.769Z" fill="white"/>
<path d="M60.3342 31.8005H56.8646V23.6614H48.1841V31.8005H44.7145V13.1785H48.1841V21.1888H56.8646V13.1785H60.3342V31.8005Z" fill="white"/>
<path d="M80.3417 31.8005H77.6787C77.38 31.8005 77.1324 31.7276 76.9361 31.5816C76.7483 31.4271 76.6118 31.2382 76.5264 31.015L75.1437 27.2159H67.4747L66.092 31.015C66.0237 31.2124 65.8871 31.3927 65.6823 31.5559C65.4859 31.719 65.2427 31.8005 64.9525 31.8005H62.2767L69.5488 13.1785H73.0696L80.3417 31.8005ZM68.3581 24.769H74.2603L72.007 18.5745C71.9045 18.2998 71.7893 17.9778 71.6613 17.6086C71.5418 17.2308 71.4223 16.823 71.3028 16.3852C71.1833 16.823 71.0638 17.2308 70.9443 17.6086C70.8333 17.9864 70.7224 18.3169 70.6114 18.6002L68.3581 24.769Z" fill="white"/>
<path d="M82.2484 31.8005V13.1785H88.6371C89.8491 13.1785 90.8819 13.2944 91.7354 13.5262C92.5975 13.758 93.3017 14.0885 93.8479 14.5178C94.4027 14.9471 94.8082 15.4665 95.0642 16.0761C95.3203 16.6857 95.4483 17.3725 95.4483 18.1366C95.4483 18.5745 95.3843 18.9952 95.2563 19.3987C95.1282 19.7936 94.9277 20.1671 94.6545 20.5191C94.3899 20.8625 94.0485 21.1759 93.6303 21.4592C93.2206 21.7426 92.7298 21.983 92.1579 22.1804C94.7015 22.7557 95.9732 24.1379 95.9732 26.3273C95.9732 27.1171 95.8239 27.8469 95.5251 28.5166C95.2264 29.1862 94.7911 29.7658 94.2192 30.2551C93.6473 30.7359 92.9432 31.1137 92.1067 31.3884C91.2702 31.6632 90.3143 31.8005 89.2388 31.8005H82.2484ZM85.6924 23.6357V29.0961H89.1876C89.8278 29.0961 90.3612 29.0188 90.788 28.8643C91.2233 28.7097 91.569 28.5037 91.8251 28.2461C92.0896 27.9886 92.2774 27.6881 92.3884 27.3446C92.5079 27.0012 92.5676 26.6363 92.5676 26.25C92.5676 25.8465 92.5036 25.4859 92.3756 25.1682C92.2475 24.842 92.047 24.5672 91.7738 24.344C91.5007 24.1122 91.1508 23.9362 90.724 23.816C90.2972 23.6958 89.7808 23.6357 89.1748 23.6357H85.6924ZM85.6924 21.2403H88.445C89.6144 21.2403 90.5021 21.0257 91.1081 20.5964C91.7141 20.1671 92.0171 19.4846 92.0171 18.5487C92.0171 17.5786 91.744 16.8874 91.1977 16.4753C90.6514 16.0632 89.7979 15.8572 88.6371 15.8572H85.6924V21.2403Z" fill="white"/>
<path d="M116.685 22.4895C116.685 23.8546 116.459 25.121 116.007 26.2886C115.554 27.4477 114.918 28.4522 114.099 29.3022C113.28 30.1521 112.294 30.8175 111.141 31.2983C109.989 31.7705 108.713 32.0066 107.313 32.0066C105.914 32.0066 104.633 31.7705 103.472 31.2983C102.32 30.8175 101.33 30.1521 100.502 29.3022C99.6827 28.4522 99.0468 27.4477 98.5944 26.2886C98.1421 25.121 97.9159 23.8546 97.9159 22.4895C97.9159 21.1244 98.1421 19.8623 98.5944 18.7033C99.0468 17.5356 99.6827 16.5268 100.502 15.6769C101.33 14.8269 102.32 14.1658 103.472 13.6936C104.633 13.2128 105.914 12.9724 107.313 12.9724C108.713 12.9724 109.989 13.2128 111.141 13.6936C112.294 14.1744 113.28 14.8398 114.099 15.6897C114.918 16.5311 115.554 17.5356 116.007 18.7033C116.459 19.8623 116.685 21.1244 116.685 22.4895ZM113.151 22.4895C113.151 21.4678 113.015 20.5535 112.742 19.7464C112.477 18.9308 112.093 18.2397 111.59 17.673C111.086 17.1064 110.471 16.6728 109.746 16.3723C109.029 16.0718 108.218 15.9216 107.313 15.9216C106.409 15.9216 105.593 16.0718 104.868 16.3723C104.142 16.6728 103.524 17.1064 103.011 17.673C102.508 18.2397 102.12 18.9308 101.846 19.7464C101.573 20.5535 101.437 21.4678 101.437 22.4895C101.437 23.5112 101.573 24.4298 101.846 25.2455C102.12 26.0525 102.508 26.7394 103.011 27.306C103.524 27.8641 104.142 28.2933 104.868 28.5938C105.593 28.8943 106.409 29.0446 107.313 29.0446C108.218 29.0446 109.029 28.8943 109.746 28.5938C110.471 28.2933 111.086 27.8641 111.59 27.306C112.093 26.7394 112.477 26.0525 112.742 25.2455C113.015 24.4298 113.151 23.5112 113.151 22.4895Z" fill="white"/>
<path d="M129.33 16.5655C129.236 16.7544 129.125 16.8874 128.997 16.9647C128.877 17.042 128.732 17.0806 128.561 17.0806C128.391 17.0806 128.199 17.0162 127.985 16.8874C127.772 16.7501 127.52 16.5998 127.23 16.4367C126.94 16.2736 126.598 16.1276 126.206 15.9988C125.822 15.8615 125.365 15.7928 124.836 15.7928C124.358 15.7928 123.939 15.8529 123.581 15.9731C123.231 16.0847 122.932 16.2435 122.685 16.4496C122.446 16.6556 122.267 16.9046 122.147 17.1965C122.028 17.4798 121.968 17.7932 121.968 18.1366C121.968 18.5745 122.087 18.9394 122.326 19.2313C122.574 19.5232 122.898 19.7722 123.299 19.9782C123.7 20.1843 124.157 20.3689 124.669 20.532C125.181 20.6951 125.702 20.8711 126.231 21.06C126.769 21.2403 127.294 21.4549 127.806 21.7039C128.318 21.9443 128.775 22.2534 129.176 22.6312C129.577 23.0003 129.897 23.4554 130.136 23.9963C130.384 24.5372 130.507 25.194 130.507 25.9667C130.507 26.808 130.362 27.5979 130.072 28.3363C129.79 29.066 129.372 29.7057 128.817 30.2551C128.271 30.796 127.601 31.2253 126.807 31.543C126.014 31.8521 125.105 32.0066 124.08 32.0066C123.491 32.0066 122.911 31.9465 122.339 31.8263C121.767 31.7147 121.217 31.5516 120.687 31.3369C120.167 31.1223 119.676 30.8647 119.215 30.5642C118.763 30.2637 118.357 29.9289 117.999 29.5597L118.997 27.8984C119.091 27.7782 119.202 27.6795 119.33 27.6022C119.467 27.5164 119.616 27.4734 119.778 27.4734C119.992 27.4734 120.222 27.5636 120.47 27.7439C120.717 27.9156 121.008 28.1088 121.34 28.3234C121.682 28.538 122.079 28.7355 122.531 28.9158C122.992 29.0875 123.543 29.1734 124.183 29.1734C125.164 29.1734 125.924 28.9416 126.462 28.4779C126.999 28.0057 127.268 27.3318 127.268 26.456C127.268 25.9667 127.144 25.5674 126.897 25.2584C126.658 24.9493 126.338 24.6917 125.937 24.4857C125.536 24.271 125.079 24.0907 124.567 23.9448C124.055 23.7988 123.534 23.64 123.005 23.4683C122.476 23.2965 121.955 23.0905 121.443 22.8501C120.931 22.6097 120.474 22.2963 120.073 21.91C119.672 21.5236 119.347 21.0428 119.1 20.4676C118.861 19.8838 118.741 19.1669 118.741 18.3169C118.741 17.6387 118.874 16.9776 119.138 16.3337C119.411 15.6897 119.804 15.1188 120.316 14.6208C120.837 14.1229 121.473 13.7236 122.224 13.4232C122.975 13.1227 123.833 12.9724 124.797 12.9724C125.89 12.9724 126.897 13.1441 127.819 13.4875C128.741 13.831 129.526 14.3118 130.175 14.9299L129.33 16.5655Z" fill="white"/>
<path d="M150.893 22.4895C150.893 23.8546 150.667 25.121 150.215 26.2886C149.762 27.4477 149.126 28.4522 148.307 29.3022C147.488 30.1521 146.502 30.8175 145.35 31.2983C144.197 31.7705 142.921 32.0066 141.521 32.0066C140.122 32.0066 138.841 31.7705 137.681 31.2983C136.528 30.8175 135.538 30.1521 134.71 29.3022C133.891 28.4522 133.255 27.4477 132.803 26.2886C132.35 25.121 132.124 23.8546 132.124 22.4895C132.124 21.1244 132.35 19.8623 132.803 18.7033C133.255 17.5356 133.891 16.5268 134.71 15.6769C135.538 14.8269 136.528 14.1658 137.681 13.6936C138.841 13.2128 140.122 12.9724 141.521 12.9724C142.921 12.9724 144.197 13.2128 145.35 13.6936C146.502 14.1744 147.488 14.8398 148.307 15.6897C149.126 16.5311 149.762 17.5356 150.215 18.7033C150.667 19.8623 150.893 21.1244 150.893 22.4895ZM147.36 22.4895C147.36 21.4678 147.223 20.5535 146.95 19.7464C146.685 18.9308 146.301 18.2397 145.798 17.673C145.294 17.1064 144.68 16.6728 143.954 16.3723C143.237 16.0718 142.426 15.9216 141.521 15.9216C140.617 15.9216 139.802 16.0718 139.076 16.3723C138.351 16.6728 137.732 17.1064 137.22 17.673C136.716 18.2397 136.328 18.9308 136.055 19.7464C135.781 20.5535 135.645 21.4678 135.645 22.4895C135.645 23.5112 135.781 24.4298 136.055 25.2455C136.328 26.0525 136.716 26.7394 137.22 27.306C137.732 27.8641 138.351 28.2933 139.076 28.5938C139.802 28.8943 140.617 29.0446 141.521 29.0446C142.426 29.0446 143.237 28.8943 143.954 28.5938C144.68 28.2933 145.294 27.8641 145.798 27.306C146.301 26.7394 146.685 26.0525 146.95 25.2455C147.223 24.4298 147.36 23.5112 147.36 22.4895Z" fill="white"/>
<path d="M152.005 30.0491C152.005 29.7829 152.052 29.5297 152.146 29.2893C152.249 29.0489 152.385 28.8428 152.556 28.6711C152.735 28.4994 152.944 28.362 153.183 28.259C153.422 28.156 153.678 28.1045 153.952 28.1045C154.216 28.1045 154.468 28.156 154.707 28.259C154.946 28.362 155.151 28.4994 155.321 28.6711C155.492 28.8428 155.629 29.0489 155.731 29.2893C155.834 29.5297 155.885 29.7829 155.885 30.0491C155.885 30.3238 155.834 30.5814 155.731 30.8218C155.629 31.0536 155.492 31.2554 155.321 31.4271C155.151 31.5988 154.946 31.7319 154.707 31.8263C154.468 31.9293 154.216 31.9808 153.952 31.9808C153.678 31.9808 153.422 31.9293 153.183 31.8263C152.944 31.7319 152.735 31.5988 152.556 31.4271C152.385 31.2554 152.249 31.0536 152.146 30.8218C152.052 30.5814 152.005 30.3238 152.005 30.0491Z" fill="white"/>
</svg>
