<svg width="213" height="68" viewBox="0 0 213 68" fill="none" xmlns="http://www.w3.org/2000/svg">
<g filter="url(#filter0_d)">
<path d="M182.871 2.02572C177.212 2.02704 171.712 3.90213 167.23 7.35832C162.749 10.8145 159.537 15.6573 158.098 21.1307C156.658 26.6041 157.071 32.4001 159.272 37.614C161.474 42.828 165.339 47.1663 170.266 49.952L171.364 62L181.714 53.2448C182.097 53.2448 182.483 53.2448 182.871 53.2448C189.667 53.2448 196.184 50.5453 200.989 45.7402C205.794 40.9351 208.494 34.4179 208.494 27.6224C208.494 20.8269 205.794 14.3098 200.989 9.50463C196.184 4.6995 189.667 2 182.871 2" fill="#828282"/>
</g>
<path d="M184.845 8.95895L183.859 12.6121L191.557 14.6891L192.543 11.036L184.845 8.95895Z" fill="white"/>
<path d="M185.478 12.719L173.833 36.1976L177.649 46.0419L186.387 40.3737L190.015 13.808L185.478 12.719Z" fill="white"/>
<path d="M4.78944 61.0104C8.58907 61.0104 10.4889 58.8203 10.4889 54.4401C10.4889 50.5744 8.58907 48.6416 4.78944 48.6416H1.00578V61.0104H4.78944ZM0 61.901V47.751H4.88523C9.35538 47.751 11.5905 49.9807 11.5905 54.4401C11.5905 59.414 9.32345 61.901 4.78944 61.901H0Z" fill="#828282"/>
<path d="M15.5657 47.751V61.901H14.5599V47.751H15.5657Z" fill="#828282"/>
<path d="M19.1195 61.901V47.751H24.771C27.2487 47.751 28.4876 48.8824 28.4876 51.1451C28.4876 53.1043 27.1434 54.4929 24.4549 55.3109L29.0815 61.901H27.7021L23.1522 55.3406V54.638C25.962 54.2092 27.3669 53.0713 27.3669 51.2242C27.3669 49.5223 26.4473 48.6713 24.6082 48.6713H20.1252V61.901H19.1195Z" fill="#828282"/>
<path d="M39.9535 47.751V48.6416H31.9648V54.2818H39.6279V55.1723H31.9648V61.0104H40.0877V61.901H30.959V47.751H39.9535Z" fill="#828282"/>
<path d="M53.4502 61.4062C52.2049 61.802 50.9278 61.9999 49.6186 61.9999C44.8292 61.9999 42.4345 59.5427 42.4345 54.6281C42.4345 49.9774 44.8292 47.6521 49.6186 47.6521C50.9278 47.6521 52.2049 47.85 53.4502 48.2458V49.1364C52.2049 48.7406 50.9916 48.5427 49.8102 48.5427C45.5636 48.5427 43.4403 50.5711 43.4403 54.6281C43.4403 58.949 45.5636 61.1094 49.8102 61.1094C50.9916 61.1094 52.2049 60.9115 53.4502 60.5157V61.4062Z" fill="#828282"/>
<path d="M65.2418 47.751V48.6416H60.5482V61.901H59.5424V48.6416H54.9445V47.751H65.2418Z" fill="#828282"/>
<path d="M67.5024 54.7864C67.5024 59.0017 69.4278 61.1094 73.2785 61.1094C77.059 61.1094 78.9492 59.0017 78.9492 54.7864C78.9492 50.6239 77.059 48.5427 73.2785 48.5427C69.4278 48.5427 67.5024 50.6239 67.5024 54.7864ZM66.4009 54.8458C66.4009 50.05 68.6934 47.6521 73.2785 47.6521C77.7934 47.6521 80.0508 50.05 80.0508 54.8458C80.0508 59.6152 77.7934 61.9999 73.2785 61.9999C68.6934 61.9999 66.4009 59.6152 66.4009 54.8458Z" fill="#828282"/>
<path d="M82.6467 61.901V47.751H88.2982C90.7759 47.751 92.0148 48.8824 92.0148 51.1451C92.0148 53.1043 90.6706 54.4929 87.9821 55.3109L92.6087 61.901H91.2293L86.6794 55.3406V54.638C89.4892 54.2092 90.8941 53.0713 90.8941 51.2242C90.8941 49.5223 89.9745 48.6713 88.1354 48.6713H83.6524V61.901H82.6467Z" fill="#828282"/>
<path d="M105.321 61.3073C104.139 61.769 102.797 61.9999 101.295 61.9999C96.3737 61.9999 93.9131 59.5427 93.9131 54.6281C93.9131 49.9774 96.3737 47.6521 101.295 47.6521C102.797 47.6521 104.139 47.883 105.321 48.3448V50.7196C104.139 50.1918 102.861 49.928 101.487 49.928C98.1951 49.928 96.5494 51.4947 96.5494 54.6281C96.5494 58.0254 98.1951 59.7241 101.487 59.7241C102.861 59.7241 104.139 59.4602 105.321 58.9325V61.3073Z" fill="#828282"/>
<path d="M107.718 61.901V47.751H110.258V53.5891H117.017V47.751H119.557V61.901H117.017V55.865H110.258V61.901H107.718Z" fill="#828282"/>
<path d="M131.828 47.751V50.0071H124.964V53.5693H131.502V55.9145H124.935V59.6251H131.962V61.901H122.443V47.751H131.828Z" fill="#828282"/>
<path d="M145.24 61.3073C144.058 61.769 142.716 61.9999 141.214 61.9999C136.292 61.9999 133.832 59.5427 133.832 54.6281C133.832 49.9774 136.292 47.6521 141.214 47.6521C142.716 47.6521 144.058 47.883 145.24 48.3448V50.7196C144.058 50.1918 142.779 49.928 141.405 49.928C138.114 49.928 136.468 51.4947 136.468 54.6281C136.468 58.0254 138.114 59.7241 141.405 59.7241C142.779 59.7241 144.058 59.4602 145.24 58.9325V61.3073Z" fill="#828282"/>
<path d="M150.177 47.751V61.901H147.637V47.751H150.177ZM159.821 47.751L153.973 54.351L160.435 61.901H156.917L151.615 55.2911V53.5891L156.715 47.751H159.821Z" fill="#828282"/>
<defs>
<filter id="filter0_d" x="153.255" y="0" width="59.2389" height="68" filterUnits="userSpaceOnUse" color-interpolation-filters="sRGB">
<feFlood flood-opacity="0" result="BackgroundImageFix"/>
<feColorMatrix in="SourceAlpha" type="matrix" values="0 0 0 0 0 0 0 0 0 0 0 0 0 0 0 0 0 0 127 0"/>
<feOffset dy="2"/>
<feGaussianBlur stdDeviation="2"/>
<feColorMatrix type="matrix" values="0 0 0 0 0 0 0 0 0 0 0 0 0 0 0 0 0 0 0.25 0"/>
<feBlend mode="normal" in2="BackgroundImageFix" result="effect1_dropShadow"/>
<feBlend mode="normal" in="SourceGraphic" in2="effect1_dropShadow" result="shape"/>
</filter>
</defs>
</svg>
