<svg width="122" height="46" viewBox="0 0 122 46" fill="none" xmlns="http://www.w3.org/2000/svg">
<path d="M26.0744 18.3542C26.0744 19.9915 25.5982 21.5921 24.7061 22.9535C23.8141 24.315 22.5462 25.376 21.0627 26.0026C19.5793 26.6292 17.9469 26.7932 16.3721 26.4737C14.7973 26.1543 13.3508 25.3658 12.2154 24.208C11.08 23.0503 10.3068 21.5752 9.99354 19.9693C9.68029 18.3634 9.84107 16.6988 10.4555 15.1861C11.07 13.6734 12.1106 12.3804 13.4456 11.4708C14.7807 10.5611 16.3503 10.0756 17.956 10.0756C20.1083 10.0781 22.1718 10.9512 23.6937 12.5032C25.2156 14.0552 26.0718 16.1593 26.0744 18.3542ZM17.956 0.0438365C13.1953 0.0489928 8.63108 1.97977 5.26478 5.41251C1.89849 8.84525 0.00505646 13.4996 0 18.3542V45.8976H9.8376V34.6874C12.3537 35.9848 15.1366 36.6525 17.956 36.6353C20.3495 36.6916 22.7298 36.2595 24.9572 35.3644C27.1846 34.4692 29.214 33.1291 30.9263 31.4228C32.6387 29.7165 33.9992 27.6785 34.9282 25.4283C35.8571 23.1782 36.3356 20.7615 36.3356 18.3201C36.3356 15.8787 35.8571 13.462 34.9282 11.2119C33.9992 8.96175 32.6387 6.92365 30.9263 5.21735C29.214 3.51105 27.1846 2.17098 24.9572 1.27584C22.7298 0.380713 20.3495 -0.0514175 17.956 0.00486999" fill="#828282"/>
<path d="M62.1528 31.6736H55.6735V22.5225C55.7569 21.1402 55.403 19.7669 54.6627 18.6006C54.2852 18.1116 53.8084 17.7096 53.2644 17.4214C52.7203 17.1332 52.1217 16.9656 51.5083 16.9297C50.8948 16.8938 50.2809 16.9905 49.7075 17.2133C49.1341 17.436 48.6145 17.7798 48.1834 18.2215C47.3843 19.0776 46.9393 20.2092 46.9393 21.3851C46.9393 22.5611 47.3843 23.6927 48.1834 24.5488C48.5689 24.9701 49.0384 25.3043 49.561 25.5296C50.0836 25.755 50.6475 25.8662 51.2157 25.8561C52.3518 25.768 53.4396 25.3554 54.3517 24.6665V31.203C53.2302 32.0515 51.8661 32.5103 50.4641 32.5103C49.0947 32.5265 47.7375 32.2494 46.482 31.6973C45.2266 31.1451 44.1017 30.3306 43.1814 29.3074C42.1982 28.2839 41.4252 27.0744 40.907 25.7484C40.3888 24.4225 40.1356 23.0063 40.162 21.5812C40.1356 20.1213 40.4073 18.6716 40.9602 17.3221C41.513 15.9727 42.3353 14.7525 43.3757 13.7374C44.4036 12.6896 45.6324 11.864 46.987 11.3111C48.3416 10.7582 49.7937 10.4895 51.2546 10.5215C52.7042 10.4854 54.1451 10.7564 55.4844 11.3171C56.8237 11.8778 58.0315 12.7157 59.0298 13.7767C60.0598 14.8851 60.8625 16.1879 61.3917 17.6103C61.921 19.0327 62.1665 20.5465 62.1139 22.0649L62.1528 31.6736Z" fill="#828282"/>
<path d="M88.9267 31.6736H82.4474V22.5225C82.5308 21.1402 82.1769 19.7669 81.4367 18.6006C81.0591 18.1116 80.5823 17.7096 80.0383 17.4214C79.4943 17.1332 78.8956 16.9656 78.2822 16.9297C77.6688 16.8938 77.0548 16.9905 76.4814 17.2133C75.908 17.436 75.3884 17.7798 74.9573 18.2215C74.1582 19.0776 73.7132 20.2092 73.7132 21.3851C73.7132 22.5611 74.1582 23.6927 74.9573 24.5488C75.3428 24.9701 75.8123 25.3043 76.3349 25.5296C76.8575 25.755 77.4214 25.8662 77.9896 25.8561C79.1257 25.768 80.2135 25.3554 81.1257 24.6665V31.203C80.0041 32.0515 78.64 32.5103 77.2381 32.5103C75.8686 32.5265 74.5114 32.2494 73.256 31.6973C72.0006 31.1451 70.8756 30.3306 69.9553 29.3074C68.9721 28.2839 68.1991 27.0744 67.6809 25.7484C67.1628 24.4225 66.9096 23.0063 66.936 21.5812C66.9095 20.1213 67.1812 18.6716 67.7341 17.3221C68.287 15.9727 69.1092 14.7525 70.1497 13.7374C71.1775 12.6896 72.4063 11.864 73.7609 11.3111C75.1155 10.7582 76.5676 10.4895 78.0285 10.5215C79.4781 10.4854 80.9191 10.7564 82.2584 11.3171C83.5976 11.8778 84.8054 12.7157 85.8037 13.7767C86.8337 14.8851 87.6364 16.1879 88.1657 17.6103C88.6949 19.0327 88.9404 20.5465 88.8879 22.0649L88.9267 31.6736Z" fill="#828282"/>
<path d="M60.2406 45.8975H42.0728C42.0728 40.6189 46.1382 36.3354 51.1567 36.3354C56.1751 36.3354 60.2406 40.6189 60.2406 45.8975Z" fill="#828282"/>
<path d="M87.0145 45.8975H68.8467C68.8467 40.6189 72.9122 36.3354 77.9306 36.3354C82.949 36.3354 87.0145 40.6189 87.0145 45.8975Z" fill="#828282"/>
<path d="M92.9537 45.8976V35.6121H103.46C105.151 35.6598 106.843 35.5916 108.526 35.4077C109.997 35.1279 110.743 34.4716 110.743 33.4065C110.743 32.3414 109.407 30.9212 106.754 28.8555L97.8233 21.9482C96.2378 20.8085 94.9471 19.2807 94.0652 17.5C93.1834 15.7192 92.7375 13.7402 92.7672 11.738C92.6775 10.0821 92.9723 8.42801 93.6269 6.91513C94.2814 5.40225 95.2764 4.07486 96.5282 3.04477C99.0355 1.01491 102.613 0 107.262 0H119.218V10.2855H110.236C108.499 10.1913 106.757 10.3324 105.055 10.7052C103.957 11.071 103.408 11.6627 103.408 12.4911C103.402 12.756 103.45 13.0191 103.548 13.2636C103.647 13.5082 103.793 13.7288 103.978 13.9113C104.991 14.8074 106.05 15.6478 107.148 16.4289L117.022 23.8095C118.406 24.7621 119.537 26.0623 120.308 27.5895C121.08 29.1167 121.468 30.8215 121.436 32.5458C121.464 35.1048 120.819 37.6233 119.571 39.8296C118.438 41.9091 116.68 43.5456 114.566 44.4882C111.824 45.5243 108.913 45.9921 105.998 45.8654L92.9537 45.8976Z" fill="#828282"/>
</svg>
