<svg width="324" height="74" viewBox="0 0 324 74" fill="none" xmlns="http://www.w3.org/2000/svg">
<g clip-path="url(#clip0)">
<path d="M91.0723 25.3168C91.0723 22.7157 91.4751 20.4036 92.2807 18.3803C93.0863 16.3251 94.1658 14.591 95.5193 13.1781C96.9049 11.7651 98.5001 10.6893 100.305 9.95069C102.142 9.21208 104.075 8.84277 106.105 8.84277C108.071 8.84277 109.844 9.26025 111.423 10.0952C113.034 10.898 114.371 11.8454 115.435 12.9372L111.519 17.3206C110.714 16.5821 109.892 16.004 109.054 15.5865C108.248 15.1691 107.298 14.9603 106.202 14.9603C105.106 14.9603 104.075 15.2012 103.108 15.6829C102.174 16.1325 101.352 16.7908 100.643 17.6578C99.9342 18.525 99.3702 19.5847 98.9514 20.837C98.5646 22.0894 98.3712 23.5025 98.3712 25.076C98.3712 28.3194 99.0641 30.8403 100.45 32.6386C101.835 34.4049 103.689 35.288 106.009 35.288C107.298 35.288 108.426 35.031 109.392 34.5172C110.359 34.0034 111.229 33.329 112.003 32.4942L115.918 36.7813C114.597 38.3227 113.082 39.4788 111.374 40.2495C109.699 41.0201 107.878 41.4056 105.912 41.4056C103.882 41.4056 101.964 41.0684 100.16 40.394C98.3552 39.6875 96.776 38.6599 95.4226 37.3111C94.0691 35.9624 93.0056 34.2925 92.2323 32.3014C91.4589 30.2784 91.0723 27.9501 91.0723 25.3168Z" fill="#828282"/>
<path d="M135.588 41.4056C133.461 41.4056 131.511 41.0363 129.739 40.2976C127.999 39.527 126.5 38.435 125.244 37.0221C123.987 35.6091 123.004 33.8911 122.295 31.868C121.618 29.8448 121.28 27.5488 121.28 24.9796C121.28 22.4107 121.618 20.1306 122.295 18.1395C123.004 16.1164 123.987 14.4305 125.244 13.0817C126.5 11.7009 127.999 10.6572 129.739 9.95069C131.511 9.21208 133.461 8.84277 135.588 8.84277C137.715 8.84277 139.648 9.21208 141.389 9.95069C143.161 10.6572 144.676 11.7009 145.932 13.0817C147.189 14.4626 148.156 16.1646 148.833 18.1878C149.542 20.1787 149.896 22.4428 149.896 24.9796C149.896 27.5488 149.542 29.8448 148.833 31.868C148.156 33.8911 147.189 35.6091 145.932 37.0221C144.676 38.435 143.161 39.527 141.389 40.2976C139.648 41.0363 137.715 41.4056 135.588 41.4056ZM135.588 35.288C137.747 35.288 139.455 34.3728 140.712 32.5423C141.969 30.6798 142.597 28.1589 142.597 24.9796C142.597 21.8326 141.969 19.376 140.712 17.6097C139.455 15.8435 137.747 14.9603 135.588 14.9603C133.429 14.9603 131.721 15.8435 130.464 17.6097C129.207 19.376 128.579 21.8326 128.579 24.9796C128.579 28.1589 129.207 30.6798 130.464 32.5423C131.721 34.3728 133.429 35.288 135.588 35.288Z" fill="#828282"/>
<path d="M159.689 9.42065H166.988L175.206 25.0277L178.299 31.9641H178.492C178.331 30.2942 178.137 28.4317 177.913 26.3764C177.719 24.3212 177.623 22.3622 177.623 20.4998V9.42065H184.39V40.8274H177.091L168.873 25.1722L165.779 18.3321H165.586C165.747 20.0662 165.925 21.9288 166.118 23.9198C166.343 25.9109 166.456 27.8376 166.456 29.7002V40.8274H159.689V9.42065Z" fill="#828282"/>
<path d="M195.786 9.42065H215.653V15.3937H202.892V22.6673H213.817V28.6405H202.892V40.8274H195.786V9.42065Z" fill="#828282"/>
<path d="M225.001 9.42065H232.107V34.8543H244.579V40.8274H225.001V9.42065Z" fill="#828282"/>
<path d="M264.951 41.4056C262.823 41.4056 260.874 41.0363 259.102 40.2976C257.361 39.527 255.864 38.435 254.607 37.0221C253.349 35.6091 252.367 33.8911 251.657 31.868C250.98 29.8448 250.643 27.5488 250.643 24.9796C250.643 22.4107 250.98 20.1306 251.657 18.1395C252.367 16.1164 253.349 14.4305 254.607 13.0817C255.864 11.7009 257.361 10.6572 259.102 9.95069C260.874 9.21208 262.823 8.84277 264.951 8.84277C267.077 8.84277 269.011 9.21208 270.751 9.95069C272.523 10.6572 274.038 11.7009 275.295 13.0817C276.552 14.4626 277.518 16.1646 278.194 18.1878C278.905 20.1787 279.259 22.4428 279.259 24.9796C279.259 27.5488 278.905 29.8448 278.194 31.868C277.518 33.8911 276.552 35.6091 275.295 37.0221C274.038 38.435 272.523 39.527 270.751 40.2976C269.011 41.0363 267.077 41.4056 264.951 41.4056ZM264.951 35.288C267.109 35.288 268.817 34.3728 270.074 32.5423C271.331 30.6798 271.959 28.1589 271.959 24.9796C271.959 21.8326 271.331 19.376 270.074 17.6097C268.817 15.8435 267.109 14.9603 264.951 14.9603C262.791 14.9603 261.083 15.8435 259.826 17.6097C258.57 19.376 257.941 21.8326 257.941 24.9796C257.941 28.1589 258.57 30.6798 259.826 32.5423C261.083 34.3728 262.791 35.288 264.951 35.288Z" fill="#828282"/>
<path d="M286.006 9.42065H293.306L295.482 24.1125C295.674 25.7502 295.883 27.404 296.109 29.0739C296.336 30.7118 296.545 32.3655 296.737 34.0354H296.931C297.254 32.3655 297.559 30.7118 297.849 29.0739C298.172 27.404 298.494 25.7502 298.816 24.1125L302.2 9.42065H308.243L311.626 24.1125C311.948 25.7181 312.254 27.3559 312.544 29.0258C312.866 30.6635 313.189 32.3334 313.511 34.0354H313.705C313.929 32.3334 314.14 30.6635 314.333 29.0258C314.559 27.388 314.783 25.7502 315.009 24.1125L317.185 9.42065H324L318.393 40.8274H309.451L306.358 26.5691C306.099 25.3488 305.858 24.1285 305.632 22.9081C305.438 21.6559 305.261 20.4515 305.1 19.2954H304.906C304.714 20.4515 304.505 21.6559 304.279 22.9081C304.085 24.1285 303.86 25.3488 303.602 26.5691L300.654 40.8274H291.855L286.006 9.42065Z" fill="#828282"/>
<path fill-rule="evenodd" clip-rule="evenodd" d="M49.1926 72.0321C56.6684 69.5063 63.1425 64.6821 67.6787 58.2572L60.328 53.1275C55.2194 60.3497 46.7726 65.069 37.217 65.069C35.0099 65.069 32.8617 64.8171 30.8002 64.3408V73.446C36.9279 74.5123 43.254 74.0387 49.1926 72.0321ZM8.98347 61.1068C8.39045 60.4203 7.82146 59.7108 7.27795 58.979C2.58765 52.6643 0.0389824 45.0302 0.000443583 37.1806C-0.0380953 29.3309 2.4355 21.6726 7.06357 15.3126C11.6916 8.95272 18.2343 4.22093 25.7457 1.80143C33.2571 -0.618076 41.3478 -0.599914 48.8481 1.8533C56.3483 4.3065 62.8695 9.06759 67.4686 15.4482L60.1683 20.649C55.0444 13.5532 46.6737 8.93104 37.217 8.93104C21.6241 8.93104 8.98347 21.498 8.98347 37V61.1068Z" fill="#828282"/>
<path fill-rule="evenodd" clip-rule="evenodd" d="M24.3833 71.7416C21.1553 70.5626 18.1372 68.9518 15.3999 66.9795V37.0002C15.3999 25.0213 25.1677 15.3105 37.2168 15.3105C49.2659 15.3105 59.0336 25.0213 59.0336 37.0002C59.0336 48.979 49.2659 58.6898 37.2168 58.6898C32.4199 58.6898 27.9846 57.1508 24.3833 54.5423V71.7416ZM24.3833 37.0002V37.0184C24.3933 44.0565 30.1352 49.7589 37.2168 49.7589C44.3045 49.7589 50.0502 44.0466 50.0502 37.0002C50.0502 29.9538 44.3045 24.2416 37.2168 24.2416C30.1291 24.2416 24.3833 29.9538 24.3833 37.0002Z" fill="#828282"/>
<path d="M94.2603 67.2728V53.9528H99.1422C100.008 53.9528 100.72 54.0515 101.277 54.2488C101.846 54.4461 102.292 54.7175 102.613 55.0628C102.947 55.4081 103.176 55.809 103.3 56.2653C103.436 56.7093 103.504 57.178 103.504 57.6713C103.504 58.4113 103.35 59.0218 103.04 59.5028C102.743 59.9838 102.354 60.3661 101.871 60.6498C101.388 60.9211 100.838 61.1123 100.219 61.2233C99.6125 61.3343 98.9999 61.3898 98.3811 61.3898H95.5225V67.2728H94.2603ZM98.4182 60.3168C99.0122 60.3168 99.5443 60.2798 100.015 60.2058C100.485 60.1318 100.881 59.9961 101.203 59.7988C101.537 59.5891 101.79 59.3116 101.964 58.9663C102.149 58.6086 102.242 58.1461 102.242 57.5788C102.242 56.7401 101.964 56.105 101.407 55.6733C100.862 55.2416 99.9898 55.0258 98.7895 55.0258H95.5225V60.3168H98.4182ZM114.425 60.6313C114.425 59.657 114.555 58.7443 114.815 57.8933C115.087 57.0423 115.483 56.3023 116.003 55.6733C116.523 55.032 117.166 54.5263 117.934 54.1563C118.701 53.7863 119.586 53.6013 120.588 53.6013C121.627 53.6013 122.537 53.7863 123.317 54.1563C124.109 54.514 124.765 55.0135 125.284 55.6548C125.816 56.2838 126.212 57.03 126.472 57.8933C126.744 58.7443 126.881 59.657 126.881 60.6313C126.881 61.5933 126.744 62.4998 126.472 63.3508C126.212 64.1895 125.823 64.9295 125.303 65.5708C124.783 66.1998 124.133 66.6993 123.354 67.0693C122.574 67.4393 121.671 67.6243 120.644 67.6243C119.616 67.6243 118.713 67.4393 117.934 67.0693C117.154 66.6993 116.504 66.1998 115.984 65.5708C115.465 64.9295 115.075 64.1895 114.815 63.3508C114.555 62.4998 114.425 61.5933 114.425 60.6313ZM120.662 66.5513C121.528 66.5513 122.271 66.391 122.89 66.0703C123.521 65.7373 124.034 65.2995 124.43 64.7568C124.839 64.2141 125.136 63.5851 125.321 62.8698C125.519 62.1545 125.618 61.4083 125.618 60.6313C125.618 59.7063 125.501 58.88 125.266 58.1523C125.043 57.4123 124.715 56.7833 124.282 56.2653C123.849 55.7473 123.323 55.3526 122.704 55.0813C122.085 54.81 121.392 54.6743 120.625 54.6743C119.771 54.6743 119.029 54.8408 118.398 55.1738C117.779 55.5068 117.265 55.9508 116.857 56.5058C116.461 57.0485 116.164 57.6775 115.966 58.3928C115.78 59.1081 115.687 59.8543 115.687 60.6313C115.687 61.4206 115.78 62.173 115.966 62.8883C116.164 63.6036 116.461 64.2326 116.857 64.7753C117.265 65.318 117.779 65.7496 118.398 66.0703C119.029 66.391 119.784 66.5513 120.662 66.5513ZM149.162 65.4968H149.199L152.113 53.9528H153.412L149.904 67.2728H148.512L145.412 55.5068H145.375L142.275 67.2728H140.883L137.43 53.9528H138.692L141.569 65.4968H141.607L144.707 53.9528H146.117L149.162 65.4968ZM164.451 67.2728V53.9528H173.343V55.0258H165.713V59.8358H172.601V60.9088H165.713V66.1998H173.529V67.2728H164.451ZM190.259 60.1503C190.73 60.1503 191.162 60.101 191.558 60.0023C191.966 59.9036 192.319 59.7495 192.616 59.5398C192.913 59.3178 193.148 59.0403 193.322 58.7073C193.495 58.3743 193.581 57.9735 193.581 57.5048C193.581 57.0115 193.489 56.6045 193.303 56.2838C193.129 55.9631 192.888 55.7103 192.579 55.5253C192.282 55.3403 191.936 55.2108 191.54 55.1368C191.156 55.0628 190.753 55.0258 190.333 55.0258H186.323V60.1503H190.259ZM186.323 61.2233V67.2728H185.061V53.9528H190.296C191.769 53.9528 192.895 54.2303 193.674 54.7853C194.454 55.328 194.844 56.216 194.844 57.4493C194.844 58.288 194.67 58.954 194.324 59.4473C193.99 59.9406 193.44 60.36 192.672 60.7053C193.068 60.841 193.377 61.0383 193.6 61.2973C193.823 61.5563 193.99 61.8523 194.101 62.1853C194.213 62.5183 194.28 62.8698 194.305 63.2398C194.342 63.6098 194.368 63.9675 194.38 64.3128C194.391 64.8185 194.41 65.2378 194.435 65.5708C194.472 65.9038 194.51 66.1751 194.547 66.3848C194.596 66.5945 194.651 66.761 194.714 66.8843C194.776 66.9953 194.85 67.0816 194.936 67.1433V67.2728H193.544C193.408 67.0508 193.31 66.7425 193.247 66.3478C193.198 65.9531 193.154 65.54 193.117 65.1083C193.092 64.6766 193.068 64.2573 193.043 63.8503C193.031 63.4433 192.999 63.1103 192.95 62.8513C192.876 62.4936 192.753 62.21 192.579 62.0003C192.419 61.7783 192.22 61.6118 191.985 61.5008C191.75 61.3898 191.484 61.3158 191.187 61.2788C190.902 61.2418 190.605 61.2233 190.296 61.2233H186.323ZM226.871 61.4638V60.3908H232.588V67.2728H231.511V64.9973C231.275 65.392 231.003 65.7558 230.695 66.0888C230.398 66.4095 230.05 66.687 229.655 66.9213C229.259 67.1433 228.801 67.316 228.281 67.4393C227.762 67.5626 227.173 67.6243 226.518 67.6243C225.676 67.6243 224.896 67.4763 224.179 67.1803C223.46 66.8843 222.843 66.4465 222.323 65.8668C221.803 65.2748 221.395 64.5348 221.098 63.6468C220.813 62.7588 220.671 61.7228 220.671 60.5388C220.671 59.5645 220.794 58.658 221.042 57.8193C221.289 56.9683 221.666 56.2345 222.174 55.6178C222.694 54.9888 223.337 54.4955 224.105 54.1378C224.885 53.7801 225.799 53.6013 226.852 53.6013C227.558 53.6013 228.212 53.6876 228.82 53.8603C229.437 54.033 229.989 54.2981 230.472 54.6558C230.966 55.0011 231.381 55.439 231.716 55.9693C232.05 56.4873 232.291 57.104 232.439 57.8193H231.14C231.029 57.326 230.836 56.882 230.565 56.4873C230.305 56.0926 229.989 55.7658 229.618 55.5068C229.247 55.2355 228.832 55.032 228.374 54.8963C227.915 54.7483 227.439 54.6743 226.945 54.6743C226.066 54.6743 225.311 54.8285 224.68 55.1368C224.049 55.4451 223.529 55.883 223.121 56.4503C222.713 57.0053 222.409 57.6775 222.212 58.4668C222.026 59.2438 221.933 60.101 221.933 61.0383C221.933 61.7783 222.038 62.4813 222.249 63.1473C222.471 63.8133 222.787 64.3991 223.195 64.9048C223.616 65.4105 224.123 65.8113 224.717 66.1073C225.323 66.4033 226.01 66.5513 226.778 66.5513C227.136 66.5513 227.507 66.5143 227.892 66.4403C228.275 66.354 228.646 66.2183 229.005 66.0333C229.363 65.8483 229.697 65.6078 230.008 65.3118C230.317 65.0158 230.583 64.652 230.806 64.2203C231.015 63.801 231.159 63.3631 231.233 62.9068C231.319 62.4505 231.368 61.9695 231.381 61.4638H226.871ZM250.097 60.1503C250.568 60.1503 251 60.101 251.397 60.0023C251.805 59.9036 252.158 59.7495 252.455 59.5398C252.752 59.3178 252.986 59.0403 253.16 58.7073C253.334 58.3743 253.42 57.9735 253.42 57.5048C253.42 57.0115 253.327 56.6045 253.142 56.2838C252.968 55.9631 252.727 55.7103 252.418 55.5253C252.121 55.3403 251.775 55.2108 251.378 55.1368C250.995 55.0628 250.592 55.0258 250.172 55.0258H246.162V60.1503H250.097ZM246.162 61.2233V67.2728H244.9V53.9528H250.135C251.608 53.9528 252.733 54.2303 253.513 54.7853C254.293 55.328 254.682 56.216 254.682 57.4493C254.682 58.288 254.509 58.954 254.163 59.4473C253.829 59.9406 253.278 60.36 252.511 60.7053C252.907 60.841 253.216 61.0383 253.439 61.2973C253.661 61.5563 253.829 61.8523 253.94 62.1853C254.051 62.5183 254.119 62.8698 254.144 63.2398C254.181 63.6098 254.207 63.9675 254.218 64.3128C254.23 64.8185 254.249 65.2378 254.274 65.5708C254.311 65.9038 254.348 66.1751 254.385 66.3848C254.434 66.5945 254.49 66.761 254.552 66.8843C254.615 66.9953 254.689 67.0816 254.775 67.1433V67.2728H253.383C253.246 67.0508 253.148 66.7425 253.086 66.3478C253.037 65.9531 252.993 65.54 252.956 65.1083C252.931 64.6766 252.907 64.2573 252.882 63.8503C252.87 63.4433 252.838 63.1103 252.789 62.8513C252.715 62.4936 252.592 62.21 252.418 62.0003C252.257 61.7783 252.058 61.6118 251.824 61.5008C251.589 61.3898 251.323 61.3158 251.026 61.2788C250.74 61.2418 250.443 61.2233 250.135 61.2233H246.162ZM266.061 60.6313C266.061 59.657 266.191 58.7443 266.451 57.8933C266.723 57.0423 267.119 56.3023 267.639 55.6733C268.159 55.032 268.802 54.5263 269.57 54.1563C270.337 53.7863 271.222 53.6013 272.224 53.6013C273.263 53.6013 274.173 53.7863 274.953 54.1563C275.744 54.514 276.401 55.0135 276.92 55.6548C277.452 56.2838 277.848 57.03 278.108 57.8933C278.38 58.7443 278.517 59.657 278.517 60.6313C278.517 61.5933 278.38 62.4998 278.108 63.3508C277.848 64.1895 277.459 64.9295 276.939 65.5708C276.419 66.1998 275.769 66.6993 274.99 67.0693C274.21 67.4393 273.307 67.6243 272.28 67.6243C271.252 67.6243 270.349 67.4393 269.57 67.0693C268.79 66.6993 268.14 66.1998 267.62 65.5708C267.101 64.9295 266.711 64.1895 266.451 63.3508C266.191 62.4998 266.061 61.5933 266.061 60.6313ZM272.298 66.5513C273.164 66.5513 273.906 66.391 274.526 66.0703C275.157 65.7373 275.67 65.2995 276.066 64.7568C276.475 64.2141 276.772 63.5851 276.957 62.8698C277.155 62.1545 277.254 61.4083 277.254 60.6313C277.254 59.7063 277.136 58.88 276.902 58.1523C276.679 57.4123 276.352 56.7833 275.918 56.2653C275.484 55.7473 274.959 55.3526 274.34 55.0813C273.721 54.81 273.029 54.6743 272.261 54.6743C271.407 54.6743 270.665 54.8408 270.034 55.1738C269.414 55.5068 268.901 55.9508 268.493 56.5058C268.096 57.0485 267.799 57.6775 267.602 58.3928C267.416 59.1081 267.323 59.8543 267.323 60.6313C267.323 61.4206 267.416 62.173 267.602 62.8883C267.799 63.6036 268.096 64.2326 268.493 64.7753C268.901 65.318 269.414 65.7496 270.034 66.0703C270.665 66.391 271.419 66.5513 272.298 66.5513ZM290.329 53.9528H291.591V61.8893C291.591 63.542 291.9 64.7321 292.52 65.4598C293.137 66.1875 294.134 66.5513 295.508 66.5513C296.225 66.5513 296.831 66.4588 297.327 66.2738C297.833 66.0765 298.242 65.7866 298.552 65.4043C298.861 65.0096 299.084 64.5225 299.221 63.9428C299.356 63.3631 299.425 62.6786 299.425 61.8893V53.9528H300.687V62.2593C300.687 63.9983 300.253 65.3303 299.388 66.2553C298.534 67.168 297.239 67.6243 295.508 67.6243C293.763 67.6243 292.464 67.1556 291.61 66.2183C290.756 65.281 290.329 63.9613 290.329 62.2593V53.9528ZM312.932 67.2728V53.9528H317.813C318.679 53.9528 319.391 54.0515 319.948 54.2488C320.517 54.4461 320.962 54.7175 321.285 55.0628C321.619 55.4081 321.848 55.809 321.971 56.2653C322.108 56.7093 322.176 57.178 322.176 57.6713C322.176 58.4113 322.02 59.0218 321.712 59.5028C321.415 59.9838 321.025 60.3661 320.542 60.6498C320.06 60.9211 319.509 61.1123 318.89 61.2233C318.284 61.3343 317.672 61.3898 317.052 61.3898H314.194V67.2728H312.932ZM317.09 60.3168C317.684 60.3168 318.215 60.2798 318.686 60.2058C319.157 60.1318 319.552 59.9961 319.874 59.7988C320.208 59.5891 320.461 59.3116 320.635 58.9663C320.821 58.6086 320.913 58.1461 320.913 57.5788C320.913 56.7401 320.635 56.105 320.078 55.6733C319.533 55.2416 318.661 55.0258 317.461 55.0258H314.194V60.3168H317.09Z" fill="#828282"/>
</g>
<defs>
<clipPath id="clip0">
<rect width="324" height="74" fill="white"/>
</clipPath>
</defs>
</svg>
