<svg width="207" height="63" viewBox="0 0 207 63" fill="none" xmlns="http://www.w3.org/2000/svg">
<path d="M61.998 52.2249C61.9439 52.5005 61.894 52.7772 61.8326 53.0518C61.6323 53.9828 61.3178 54.8851 60.8962 55.7378C60.8102 55.9342 60.6656 56.0989 60.4826 56.2089C60.2995 56.3189 60.0871 56.3689 59.8746 56.3519C59.4095 56.3299 59.0849 56.0732 58.9133 55.6424C58.8586 55.501 58.8346 55.3495 58.8431 55.198C58.8515 55.0465 58.8921 54.8985 58.9622 54.7642C59.708 53.209 60.0407 51.4855 59.9276 49.7621C59.8211 47.7172 59.0786 45.7578 57.8053 44.1616C57.5712 43.865 57.3225 43.5789 57.0635 43.3043C56.6296 42.8443 56.6005 42.161 57.0135 41.7407C57.4557 41.2911 58.1257 41.2943 58.5897 41.7554C59.7043 42.8768 60.5882 44.2087 61.1907 45.6749C61.5595 46.5452 61.8178 47.459 61.9595 48.3945C61.9696 48.4364 61.9832 48.4774 62.0001 48.5171L61.998 52.2249Z" fill="#828282"/>
<path d="M61.9979 14.144C61.9563 14.363 61.9167 14.582 61.8709 14.8C61.5425 16.357 60.9183 17.8352 60.0326 19.1534C59.599 19.8054 59.1012 20.4118 58.5469 20.9633C58.4484 21.0648 58.3307 21.1454 58.2008 21.2004C58.0709 21.2555 57.9315 21.2838 57.7905 21.2838C57.6496 21.2838 57.5102 21.2555 57.3803 21.2004C57.2504 21.1454 57.1327 21.0648 57.0342 20.9633C56.8353 20.7555 56.7241 20.478 56.7241 20.1894C56.7241 19.9007 56.8353 19.6232 57.0342 19.4154C58.2108 18.234 59.0734 16.7733 59.5426 15.1679C60.0184 13.537 60.0792 11.8118 59.7194 10.1511C59.552 9.37861 59.2975 8.62793 58.961 7.91361C58.883 7.75754 58.8432 7.58499 58.8448 7.4103C58.8464 7.2356 58.8894 7.06382 58.9702 6.90924C59.051 6.75466 59.1673 6.62174 59.3094 6.52155C59.4514 6.42136 59.6152 6.3568 59.787 6.33322C60.0134 6.30318 60.2434 6.34676 60.4435 6.45761C60.6435 6.56846 60.8032 6.74078 60.8992 6.94944C61.4149 8.00043 61.7696 9.12406 61.9511 10.2821C61.9635 10.3362 61.9795 10.3894 61.9989 10.4414L61.9979 14.144Z" fill="#828282"/>
<path d="M21.0473 17.7048C21.4552 18.0727 21.8495 18.4594 22.275 18.8052C23.4944 19.7949 24.8717 20.5692 26.3481 21.0951C28.7472 21.9555 31.2015 22.1169 33.7026 21.6579C35.4379 21.3435 37.0318 20.6696 38.531 19.7411C39.4073 19.1884 40.2191 18.538 40.9509 17.8023C40.9881 17.7679 41.027 17.7353 41.0675 17.7048C41.1091 17.8411 41.2214 17.8096 41.3203 17.8096C44.146 17.8096 46.972 17.8096 49.7984 17.8096C49.9055 17.8159 50.0122 17.8289 50.1178 17.8484C49.4613 18.1282 48.7892 18.3724 48.1525 18.6941C45.7305 19.9067 43.8411 21.7092 42.4304 24.0253C41.9017 24.9153 41.4698 25.8601 41.1424 26.8434C41.1307 26.8724 41.1175 26.9007 41.1028 26.9283C41.0378 26.9101 40.9713 26.8978 40.9041 26.8916C34.3393 26.8916 27.7748 26.8916 21.2107 26.8916C21.1434 26.8976 21.0769 26.9099 21.0119 26.9283C20.7279 26.2554 20.4616 25.5753 20.1578 24.9119C19.7167 23.9488 19.1112 23.0894 18.4412 22.2772C17.6755 21.3454 16.7924 20.5182 15.8142 19.8165C14.6955 19.0167 13.4694 18.3815 12.1728 17.9302C12.1135 17.9092 12.0563 17.8819 11.998 17.8578C12.1036 17.8382 12.2103 17.8252 12.3174 17.8191C14.2116 17.8191 16.1062 17.8191 18.0011 17.8191H20.8101C20.9089 17.8138 21.0088 17.8306 21.0473 17.7048Z" fill="#828282"/>
<path d="M41.0009 35.4192C41.313 36.1905 41.6012 36.9734 41.9373 37.7321C42.4367 38.8472 43.1628 39.8145 43.9556 40.7346C44.9534 41.8874 46.1342 42.8181 47.4295 43.6072C47.4669 43.6292 47.5023 43.6575 47.5335 43.6826C47.5335 43.8608 47.3993 43.8032 47.3119 43.8032C44.9495 43.8032 42.5875 43.8032 40.2258 43.8032C40.0552 43.8032 39.8846 43.7791 39.714 43.7654C39.2 43.4186 38.6975 43.0549 38.1711 42.729C36.7291 41.835 35.154 41.2995 33.4945 40.9872C32.5899 40.8198 31.6705 40.7471 30.751 40.7703C29.2156 40.8114 27.6963 41.0983 26.2503 41.6202C24.8842 42.1136 23.6056 42.8249 22.4633 43.7267C21.9858 44.0998 21.5468 44.5231 21.09 44.9245C21.0041 44.9052 20.9168 44.8926 20.8289 44.8868C19.3807 44.8868 17.9318 44.8868 16.4822 44.8868C15.1161 44.8868 13.7501 44.8868 12.3841 44.8816C12.2946 44.8816 12.2051 44.8082 12.1167 44.7694C12.924 44.4079 13.7615 44.0998 14.5335 43.6722C16.055 42.8227 17.4009 41.6875 18.4984 40.328C19.6538 38.909 20.526 37.2785 21.0671 35.5261C21.0786 35.4894 21.0952 35.4548 21.1098 35.4213C21.1857 35.4213 21.2627 35.4265 21.3397 35.4265H40.7752C40.8511 35.4244 40.9281 35.4213 41.0009 35.4192Z" fill="#828282"/>
<path d="M41.0008 35.4192C40.9238 35.4192 40.8468 35.4245 40.7708 35.4245H21.3375C21.2605 35.4245 21.1835 35.4245 21.1076 35.4192C21.2699 34.6291 21.4675 33.8472 21.5872 33.0476C21.7704 31.8257 21.7588 30.5821 21.5528 29.3639C21.4145 28.5444 21.1929 27.7395 21.0098 26.9273C21.0747 26.9089 21.1413 26.8966 21.2085 26.8906C27.7726 26.8906 34.3371 26.8906 40.9019 26.8906C40.9691 26.8968 41.0356 26.9091 41.1006 26.9273C40.9415 27.5739 40.7532 28.2153 40.6304 28.8692C40.397 30.1402 40.3466 31.4384 40.4806 32.7238C40.5714 33.6365 40.7456 34.5388 41.0008 35.4192Z" fill="#828282"/>
<path d="M12.1165 44.7695C12.205 44.8083 12.2945 44.8817 12.3839 44.8817C13.75 44.889 15.116 44.8869 16.482 44.8869C17.9309 44.8869 19.3798 44.8869 20.8287 44.8869C20.9166 44.8927 21.0039 44.9053 21.0899 44.9246C20.6737 45.4161 20.2357 45.8909 19.8414 46.4034C18.7597 47.841 17.9609 49.4738 17.4881 51.2137C16.9897 52.9628 15.8495 54.1565 14.1245 54.6951C12.3558 55.2474 10.7339 54.8785 9.33872 53.6471C8.21614 52.6589 7.6252 51.3814 7.65121 49.8838C7.68867 47.7741 8.68432 46.2252 10.5747 45.303C11.0585 45.0672 11.5995 44.9445 12.1165 44.7695Z" fill="#828282"/>
<path d="M21.0476 17.7049C21.0091 17.8285 20.9092 17.8097 20.8135 17.8097H18.0044C16.1103 17.8097 14.2157 17.8097 12.3208 17.8097C12.2137 17.8158 12.107 17.8288 12.0014 17.8485C11.2659 17.663 10.5542 17.4355 9.91233 17.0017C8.73462 16.2052 8.00426 15.1153 7.73897 13.7214C7.4591 12.2542 7.79203 10.9117 8.69404 9.72646C9.77604 8.30222 11.2461 7.66504 13.0033 7.78032C14.6596 7.88512 15.9518 8.68894 16.8715 10.0859C17.2325 10.6361 17.4416 11.2461 17.6133 11.8749C17.8898 12.8323 18.2738 13.7549 18.7577 14.6248C19.2253 15.4787 19.7759 16.2836 20.4015 17.0279C20.596 17.2679 20.8301 17.4796 21.0476 17.7049Z" fill="#828282"/>
<path d="M50.1177 17.8538C50.0121 17.8343 49.9055 17.8213 49.7983 17.815C46.9712 17.815 44.1452 17.815 41.3202 17.815C41.2214 17.815 41.1121 17.8433 41.0674 17.7102C41.3202 17.4283 41.5803 17.1527 41.8248 16.8635C42.0173 16.6371 42.191 16.395 42.3731 16.1592L42.4844 16.0072L42.5624 15.8888L42.6748 15.7348L42.7029 15.6939C42.7077 15.6912 42.7117 15.687 42.7141 15.6819C42.7165 15.6768 42.7173 15.6711 42.7164 15.6656L42.7778 15.5786C42.7825 15.5766 42.7864 15.573 42.7889 15.5684C42.7913 15.5638 42.7922 15.5586 42.7913 15.5535C43.3314 14.7493 43.7796 13.8862 44.1272 12.9806C44.3425 12.3969 44.4892 11.788 44.7087 11.2053C45.437 9.26965 46.803 8.08541 48.8609 7.81188C50.1326 7.64778 51.418 7.98451 52.4492 8.75185C53.4804 9.51919 54.1777 10.6579 54.3958 11.9305C54.5132 12.5516 54.5081 13.19 54.3806 13.8091C54.2532 14.4282 54.0059 15.0159 53.6529 15.5388C53.1313 16.3522 52.3864 16.9955 51.5087 17.3906C51.0592 17.5866 50.5807 17.7019 50.1177 17.8538Z" fill="#828282"/>
<path d="M39.7261 43.7657C39.8967 43.7793 40.0673 43.8034 40.2379 43.8034C42.5996 43.8034 44.9616 43.8034 47.324 43.8034C47.4114 43.8034 47.5466 43.861 47.5456 43.6829C47.8952 43.8537 48.2354 44.0476 48.5964 44.189C49.3559 44.4867 50.1216 44.7707 50.8936 45.0337C52.1732 45.4697 53.1876 46.2347 53.8347 47.4389C54.1249 47.9713 54.3213 48.5503 54.4153 49.1503C54.4371 49.298 54.4371 49.4489 54.4475 49.5988C54.2519 49.6114 54.0553 49.6355 53.8597 49.6355C50.7073 49.6355 47.5546 49.6355 44.4016 49.6355C44.3058 49.6355 44.2101 49.6355 44.1144 49.6407C43.7524 48.9312 43.4226 48.2039 43.0231 47.5164C42.2936 46.2851 41.371 45.1808 40.291 44.2467C40.1048 44.0853 39.9144 43.926 39.7261 43.7657Z" fill="#828282"/>
<path d="M44.1147 49.6427C44.2105 49.6427 44.3062 49.6375 44.4019 49.6375C47.5543 49.6375 50.707 49.6375 53.86 49.6375C54.0556 49.6375 54.2523 49.6134 54.4479 49.6008C54.459 49.9193 54.4514 50.2381 54.425 50.5556C54.2788 51.6398 53.7876 52.6472 53.0251 53.4266C52.2626 54.206 51.2699 54.7154 50.1958 54.8786C47.7405 55.2381 45.6452 53.7876 44.818 51.7786C44.6433 51.3531 44.5382 50.8993 44.3957 50.4591C44.3062 50.1846 44.2084 49.9142 44.1147 49.6427Z" fill="#828282"/>
<path d="M0.0305921 50.3574C-0.00341494 47.9234 0.711854 45.5386 2.07807 43.5308C2.50073 42.8875 2.98889 42.2904 3.53461 41.7492C4.12867 41.1717 5.08166 41.3677 5.3376 42.1285C5.48949 42.5802 5.37089 42.9753 5.04421 43.3128C3.88002 44.5017 3.02793 45.9638 2.56477 47.5672C2.10162 49.1706 2.04198 50.865 2.39123 52.4974C2.55455 53.2841 2.81165 54.0481 3.15695 54.7726C3.22124 54.9025 3.25927 55.0439 3.26883 55.1887C3.27839 55.3335 3.25928 55.4788 3.21262 55.6161C3.16597 55.7534 3.09269 55.88 2.99704 55.9885C2.9014 56.097 2.7853 56.1853 2.65548 56.2482C2.52691 56.3103 2.38736 56.346 2.24497 56.3532C2.10257 56.3604 1.96017 56.339 1.82606 56.2902C1.69196 56.2415 1.56883 56.1663 1.46384 56.0691C1.35885 55.972 1.27411 55.8547 1.21455 55.7242C0.536742 54.3425 0.136512 52.8396 0.0368344 51.3017C0.00978438 50.9883 0.0305921 50.6718 0.0305921 50.3574Z" fill="#828282"/>
<path d="M3.29841 7.43568C3.25488 7.61398 3.19926 7.78906 3.13195 7.95968C2.16023 10.0421 1.93134 12.2083 2.39743 14.4573C2.79798 16.3867 3.73329 18.0268 5.0962 19.4279C5.2928 19.6342 5.40156 19.9096 5.39923 20.1955C5.39689 20.4815 5.28366 20.7551 5.08371 20.958C4.9833 21.06 4.86374 21.1407 4.73201 21.1956C4.60028 21.2505 4.45902 21.2784 4.31646 21.2778C4.1739 21.2771 4.03291 21.2478 3.9017 21.1917C3.7705 21.1355 3.65171 21.0536 3.55226 20.9507C2.45069 19.8534 1.57401 18.5487 0.972107 17.1108C0.0284769 14.8901 -0.208731 12.5908 0.176212 10.2097C0.362677 9.07128 0.714638 7.9667 1.22076 6.9316C1.32468 6.70452 1.50427 6.52128 1.72834 6.41369C1.95241 6.3061 2.20682 6.28096 2.44737 6.34262C2.68791 6.40684 2.90112 6.54829 3.05469 6.74553C3.20826 6.94277 3.29382 7.18506 3.29841 7.43568Z" fill="#828282"/>
<path d="M12.5758 62.6201C10.9111 62.6201 9.71158 62.4461 8.54427 62.0647C7.99391 61.8844 7.44978 61.6748 6.91919 61.4432C6.74726 61.3749 6.5954 61.2636 6.47786 61.12C6.36033 60.9763 6.28099 60.8049 6.24729 60.6218C6.21358 60.4387 6.22663 60.2501 6.2852 60.0735C6.34376 59.8969 6.44593 59.7382 6.5821 59.6123C6.73889 59.4689 6.93442 59.3757 7.1439 59.3443C7.35338 59.313 7.56738 59.345 7.75878 59.4363C8.6165 59.8361 9.52129 60.1241 10.4513 60.2935C12.1322 60.5825 13.8584 60.4382 15.4691 59.8743C16.8316 59.4016 18.0722 58.6282 19.1 57.6106C19.4382 57.2805 19.8148 57.117 20.2798 57.2417C20.4592 57.2897 20.6231 57.3842 20.7549 57.5158C20.8867 57.6474 20.982 57.8116 21.0312 57.9919C21.0804 58.1722 21.0817 58.3623 21.0351 58.5433C20.9885 58.7243 20.8956 58.8898 20.7657 59.0234C19.8843 59.9293 18.8638 60.6862 17.7434 61.265C15.9893 62.1768 14.1145 62.6054 12.5758 62.6201Z" fill="#828282"/>
<path d="M49.9668 62.6296C48.7528 62.6171 47.5465 62.4323 46.3837 62.0805C44.8565 61.6223 43.4397 60.8513 42.2222 59.8157C41.9288 59.5684 41.6455 59.3099 41.3722 59.0402C41.1756 58.848 41.0598 58.587 41.0487 58.3112C41.0377 58.0354 41.1323 57.7659 41.3129 57.5583C41.5098 57.3439 41.7815 57.2147 42.071 57.1979C42.3604 57.1811 42.6451 57.278 42.8651 57.4682C43.3614 57.8874 43.8473 58.3317 44.3727 58.7143C45.4391 59.4898 46.6469 59.9541 47.9287 60.2223C49.7437 60.6113 51.6309 60.4747 53.372 59.8283C53.6955 59.7099 54.0129 59.5747 54.3302 59.4416C54.9138 59.1974 55.5318 59.4143 55.7753 59.953C55.8373 60.0861 55.8723 60.2304 55.8783 60.3773C55.8843 60.5242 55.8612 60.6709 55.8102 60.8087C55.7592 60.9465 55.6815 61.0727 55.5815 61.1798C55.4816 61.287 55.3614 61.373 55.228 61.4328C53.8685 62.0793 52.4032 62.47 50.9042 62.5856C50.5921 62.6034 50.2789 62.6139 49.9668 62.6296Z" fill="#828282"/>
<path d="M49.9607 0C51.7881 0.0399408 53.5862 0.471135 55.2354 1.26494C55.61 1.44624 55.8389 1.73653 55.869 2.16097C55.8923 2.3699 55.8534 2.58107 55.7572 2.76766C55.6611 2.95426 55.5121 3.10787 55.3291 3.20897C55.1842 3.2992 55.0187 3.35036 54.8485 3.35752C54.6783 3.36468 54.5092 3.3276 54.3574 3.24985C53.5921 2.87937 52.7851 2.60349 51.9541 2.42821C50.3386 2.1014 48.6682 2.17965 47.0898 2.65607C45.5114 3.1325 44.0735 3.9925 42.9027 5.16035C42.7268 5.3454 42.4914 5.4616 42.2384 5.48827C41.9854 5.51495 41.7313 5.45037 41.5211 5.30602C41.0914 5.00524 40.9062 4.42046 41.159 3.95725C41.3057 3.69001 41.5481 3.46783 41.7749 3.25509C43.4978 1.64745 45.5328 0.663384 47.8352 0.245232C48.5354 0.119472 49.2511 0.0796479 49.9607 0Z" fill="#828282"/>
<path d="M11.885 0.0407715C14.2165 0.0627795 16.1402 0.557435 17.9473 1.53312C18.9787 2.0886 19.9197 2.79968 20.7376 3.6417C20.8403 3.74095 20.9221 3.85999 20.9782 3.99172C21.0342 4.12346 21.0634 4.26522 21.064 4.40855C21.0646 4.55188 21.0365 4.69387 20.9815 4.82607C20.9265 4.95827 20.8457 5.07797 20.7439 5.17807C20.3277 5.59727 19.6848 5.58993 19.2228 5.1854C18.734 4.73395 18.2191 4.31193 17.681 3.92151C16.5169 3.12202 15.1917 2.59165 13.8003 2.36838C11.7724 2.02161 9.68751 2.32016 7.83581 3.2225C7.36244 3.44991 6.88594 3.36817 6.56446 3.0391C6.39655 2.8775 6.28627 2.66461 6.25072 2.43344C6.21517 2.20227 6.25633 1.96574 6.36783 1.76054C6.47824 1.56666 6.63949 1.40713 6.83392 1.29942C7.9744 0.715459 9.20617 0.33365 10.4753 0.170723C11.0381 0.0973634 11.601 0.0669715 11.885 0.0407715Z" fill="#828282"/>
<path d="M42.6749 15.7346L42.5615 15.8834L42.6749 15.7346Z" fill="#828282"/>
<path d="M42.4844 16.002L42.373 16.1539L42.4844 16.002Z" fill="#828282"/>
<path d="M42.7915 15.5481C42.7924 15.5532 42.7916 15.5585 42.7891 15.5631C42.7866 15.5676 42.7826 15.5712 42.7778 15.5733L42.7915 15.5481Z" fill="#828282"/>
<path d="M42.7163 15.6602C42.7172 15.6655 42.7164 15.671 42.7141 15.6758C42.7117 15.6807 42.7079 15.6847 42.7031 15.6873L42.7163 15.6602Z" fill="#828282"/>
<path d="M119.221 36.5604H117.422V27.2988C118.054 27.2988 118.667 27.2835 119.276 27.3119C119.391 27.3119 119.532 27.4739 119.601 27.5965C120.651 29.4331 121.69 31.2762 122.733 33.1193C122.819 33.2879 122.939 33.437 123.085 33.5571V27.3185H124.882V36.5735C124.287 36.5735 123.678 36.5866 123.074 36.5582C122.976 36.5582 122.857 36.3809 122.796 36.2627C121.691 34.3495 120.595 32.4334 119.508 30.5144C119.436 30.3896 119.36 30.2692 119.221 30.0438V36.5604Z" fill="#828282"/>
<path d="M90.9775 27.3664C92.7855 27.3664 94.5827 27.235 96.3494 27.4014C98.19 27.5743 99.094 29.7108 98.1161 31.3044C97.8988 31.6415 97.5533 31.8866 97.2469 32.18C97.2901 32.2206 97.3375 32.2565 97.3881 32.2872C98.0053 32.6396 98.1878 33.2285 98.2269 33.8852C98.2508 34.2858 98.2269 34.6907 98.24 35.0935C98.24 35.551 98.24 36.0129 98.6181 36.3588C98.6463 36.385 98.629 36.4594 98.6376 36.5426H96.4472C96.4015 35.9713 96.3537 35.4043 96.3124 34.8352C96.2885 34.5134 96.2951 34.1895 96.2494 33.872C96.1625 33.2766 95.9474 33.0162 95.3498 32.9768C94.5305 32.9242 93.7048 32.9636 92.8377 32.9636V36.5601H90.9775V27.3664ZM92.8507 31.3591C93.7808 31.3591 94.6761 31.4051 95.5627 31.3438C96.2777 31.2956 96.5624 30.906 96.5624 30.188C96.5624 29.4394 96.2407 28.984 95.5432 28.9425C94.6566 28.8877 93.7634 28.9293 92.8507 28.9293V31.3591Z" fill="#828282"/>
<path d="M150.561 36.5601H148.708V27.3489C148.725 27.3357 148.747 27.3095 148.768 27.3095C150.542 27.3292 152.324 27.2372 154.084 27.4014C155.937 27.5765 156.854 29.829 155.794 31.3853C155.577 31.6918 155.244 31.9085 154.953 32.1778C155.143 32.3049 155.323 32.4461 155.492 32.6002C155.87 32.992 155.926 33.5087 155.961 34.0209C155.985 34.4346 155.974 34.8527 155.974 35.2686C155.974 35.6845 155.996 36.05 156.326 36.339C156.365 36.3718 156.363 36.4572 156.387 36.5579H154.197C154.147 36.1201 154.084 35.6976 154.049 35.2642C154.014 34.8308 154.025 34.4039 153.984 33.9771C153.919 33.3029 153.634 33.003 152.96 32.9702C152.176 32.9351 151.389 32.9702 150.57 32.9702L150.561 36.5601ZM150.561 31.3306C151.537 31.3306 152.48 31.3678 153.417 31.3175C153.979 31.2868 154.266 30.8644 154.286 30.2536C154.314 29.5773 154.045 29.0388 153.49 28.9972C152.521 28.9228 151.535 28.9775 150.552 28.9775L150.561 31.3306Z" fill="#828282"/>
<path d="M107.882 36.8359C105.057 36.9015 103.733 34.8658 103.52 32.7884C103.404 31.8529 103.478 30.9032 103.738 29.9975C104.409 27.8216 106.087 26.8716 108.362 27.0139C110.742 27.1605 112.137 28.9621 112.258 31.0547C112.327 31.8954 112.282 32.7416 112.124 33.5699C111.643 35.7151 110.127 36.8337 107.882 36.8359ZM105.339 31.8406C105.411 32.3528 105.441 32.7994 105.541 33.2262C105.828 34.4389 106.713 35.1788 107.849 35.1963C108.986 35.2138 109.894 34.5396 110.216 33.3116C110.478 32.3608 110.464 31.3544 110.177 30.4112C109.84 29.3167 109.023 28.6731 107.956 28.66C106.815 28.66 105.965 29.2444 105.624 30.3652C105.5 30.8512 105.404 31.3437 105.335 31.8406H105.339Z" fill="#828282"/>
<path d="M78 36.5815V27.3156C78.1173 27.3156 78.2173 27.2981 78.3238 27.2981C79.6276 27.2981 80.9315 27.2827 82.2462 27.2981C83.8434 27.3287 85.0147 28.1737 85.4863 29.7059C86.0131 31.2929 85.9151 33.023 85.2124 34.5392C84.5975 35.8723 83.5327 36.5574 82.0723 36.575C80.7185 36.5925 79.3799 36.5815 78 36.5815ZM79.8819 34.966H81.5269C82.5895 34.966 83.2371 34.5283 83.5761 33.5104C83.9279 32.4309 83.9415 31.2685 83.6152 30.1809C83.4501 29.5855 83.0959 29.0865 82.47 29.0186C81.6203 28.9113 80.7555 28.9179 79.8819 28.8741V34.966Z" fill="#828282"/>
<path d="M186.665 36.5602V27.3205C186.791 27.3205 186.906 27.2986 187.021 27.2986C188.223 27.2986 189.422 27.2986 190.622 27.2986C192.647 27.2986 193.881 28.2924 194.29 30.2887C194.607 31.856 194.507 33.3883 193.721 34.8221C193.14 35.8794 192.238 36.4989 191.054 36.5514C189.605 36.6171 188.151 36.5602 186.665 36.5602ZM188.538 34.96H190.146C191.278 34.96 191.934 34.4828 192.271 33.3883C192.575 32.3672 192.585 31.2802 192.299 30.2537C192.108 29.5029 191.637 29.006 190.863 28.9403C190.089 28.8747 189.327 28.9272 188.538 28.9272V34.96Z" fill="#828282"/>
<path d="M163.512 30.9105H167.943V32.515H163.512V34.8857H168.545V36.5603H161.62V27.3271H168.343V28.9251H163.512V30.9105Z" fill="#828282"/>
<path d="M130.436 36.5603V27.3271H137.135V28.9164H132.313V30.8996H136.744V32.5107H132.32V34.8923H137.374V36.5603H130.436Z" fill="#828282"/>
<path d="M181.766 36.5819C181.143 36.5819 180.543 36.5819 179.943 36.5688C179.881 36.5532 179.824 36.5234 179.776 36.4816C179.727 36.4398 179.689 36.3872 179.665 36.328C179.5 35.8749 179.35 35.4152 179.23 34.9489C179.225 34.9034 179.21 34.8596 179.187 34.8202C179.163 34.7807 179.132 34.7465 179.095 34.7196C179.059 34.6927 179.017 34.6738 178.972 34.6639C178.928 34.654 178.882 34.6534 178.837 34.6622C177.903 34.6622 176.968 34.6753 176.036 34.6622C175.991 34.6557 175.945 34.6582 175.9 34.6697C175.856 34.6811 175.815 34.7012 175.778 34.7289C175.741 34.7565 175.711 34.7912 175.687 34.8308C175.664 34.8704 175.649 34.9143 175.643 34.9599C175.475 35.4962 175.291 36.0259 175.108 36.5666H173.1C173.448 35.5815 173.782 34.6249 174.121 33.6684C174.836 31.6479 175.556 29.6297 176.262 27.607C176.271 27.5562 176.29 27.5078 176.318 27.4644C176.346 27.421 176.382 27.3836 176.424 27.3543C176.466 27.325 176.514 27.3044 176.564 27.2937C176.614 27.283 176.666 27.2823 176.716 27.2918C177.249 27.3137 177.783 27.2918 178.315 27.3071C178.38 27.3138 178.442 27.3358 178.496 27.3711C178.551 27.4065 178.596 27.4543 178.628 27.5107C179.68 30.479 180.726 33.448 181.766 36.4177C181.774 36.4722 181.774 36.5274 181.766 36.5819ZM178.596 33.0576L177.49 29.5552L177.394 29.5662L176.266 33.0576H178.596Z" fill="#828282"/>
<path d="M207 27.2985C206.157 28.8833 205.375 30.4222 204.527 31.9238C204.108 32.6681 203.847 33.4058 203.917 34.2792C203.975 35.0234 203.927 35.7786 203.927 36.5535H202.006C202.006 35.5772 201.991 34.6141 202.006 33.6509C202.013 33.2901 201.92 32.9346 201.737 32.6243C200.816 30.976 199.909 29.3189 198.999 27.6663C198.942 27.5634 198.892 27.4474 198.812 27.2985C199.549 27.2985 200.238 27.2876 200.922 27.3116C201.02 27.3116 201.139 27.4736 201.2 27.5875C201.752 28.7345 202.287 29.8859 202.834 31.0373C202.867 31.1073 202.91 31.173 202.986 31.3109C203.271 30.6892 203.53 30.1245 203.786 29.5597C204.086 28.903 204.373 28.2463 204.69 27.5896C204.726 27.5197 204.776 27.4586 204.838 27.4109C204.9 27.3631 204.972 27.33 205.049 27.3138C205.67 27.2832 206.307 27.2985 207 27.2985Z" fill="#828282"/>
</svg>
